# xmcd
#
# Track frame offsets: 
#        150
#        18755
#        37588
#        56848
#        66694
#        84986
#        108667
#        126095
#        140556
#        164255
#        180350
#        199007
#        221522
#        241518
#        257910
#
# Disc length: 3660 seconds
#
# Revision: 3
# Processed by: cddbd v1.5.2PL0 Copyright (c) Steve Scherf et al.
# Submitted via: ExactAudioCopy v1.0b3
#
DISCID=ca0e4a0f
DTITLE=Natalie Cole - Ask A Woman Who Knows
DYEAR=2002
DGENRE=Jazz
TTITLE0=I Haven't Got Anything Better To Do
TTITLE1=Tell Me All About It
TTITLE2=Ask A Woman Who Knows
TTITLE3=It's Crazy
TTITLE4=You're Mine You
TTITLE5=So Many Stars
TTITLE6=I Told You So
TTITLE7=Soon
TTITLE8=I'm Glad There Is You
TTITLE9=Better Than Anything
TTITLE10=The Music That Makes Me Dance
TTITLE11=Calling You
TTITLE12=My Baby Just Cares For Me
TTITLE13=I've Got Just About Everything
TTITLE14=Tell Me All About It (Remix)
EXTD=YEAR: 2002
EXTT0=
EXTT1=
EXTT2=
EXTT3=
EXTT4=
EXTT5=
EXTT6=
EXTT7=
EXTT8=
EXTT9=
EXTT10=
EXTT11=
EXTT12=
EXTT13=
EXTT14=
PLAYORDER=
